<?xml version="1.0" encoding="UTF-8" standalone="no"?>
<svg
   xmlns:dc="http://purl.org/dc/elements/1.1/"
   xmlns:cc="http://creativecommons.org/ns#"
   xmlns:rdf="http://www.w3.org/1999/02/22-rdf-syntax-ns#"
   xmlns:svg="http://www.w3.org/2000/svg"
   xmlns="http://www.w3.org/2000/svg"
   width="210mm"
   height="297mm"
   viewBox="0 0 210 297"
   version="1.1"
   id="svg102134">
  <defs
     id="defs102128" />
  <metadata
     id="metadata102131">
    <rdf:RDF>
      <cc:Work
         rdf:about="">
        <dc:format>image/svg+xml</dc:format>
        <dc:type
           rdf:resource="http://purl.org/dc/dcmitype/StillImage" />
        <dc:title></dc:title>
      </cc:Work>
    </rdf:RDF>
  </metadata>
  <g
     id="layer1">
    <path
       style="fill:#0f6317;fill-opacity:1;stroke-width:0.879427"
       d="m 43.09761,142.57796 1.85353,-4.95401 -2.7453,-2.5657 c -1.509914,-1.41114 -2.7453,-3.38923 -2.7453,-4.39577 0,-1.65904 0.349313,-1.77509 3.737567,-1.24172 10.4155,1.6396 14.417086,1.64792 16.878495,0.0352 l 2.420361,-1.58588 -2.943793,-1.38648 c -1.939739,-0.91358 -3.047268,-2.11793 -3.24717,-3.53103 -0.625766,-4.42352 5.605372,-5.85603 11.56907,-2.65968 2.89583,1.55207 3.80189,1.65346 7.0224,0.78583 2.03368,-0.54791 9.43586,-1.01853 16.4493,-1.04584 19.21205,-0.0748 28.93896,2.68845 42.75175,12.14505 3.14325,2.15196 6.68225,4.15541 7.86445,4.45212 2.42034,0.60747 2.64119,1.2259 1.05016,2.94063 -0.89737,0.96714 -0.8166,1.08528 0.43971,0.6432 0.84645,-0.29784 1.539,-0.20226 1.539,0.21241 0,2.05114 -16.34785,1.61004 -25.72794,-0.6942 -3.58029,-0.8795 -3.65201,-0.83586 -4.50747,2.74319 -0.74428,3.11386 -2.97347,3.11903 -3.75413,0.009 -1.02645,-4.08985 -2.23936,-4.62579 -10.46866,-4.62579 h -7.64788 l 0.45231,2.41843 c 0.24877,1.33013 0.18506,3.13679 -0.14157,4.01479 -0.56147,1.50931 -0.68279,1.4981 -2.22465,-0.20563 -1.13529,-1.25447 -2.26132,-1.64376 -3.70594,-1.28118 -1.51179,0.37944 -2.07514,0.15092 -2.07514,-0.84174 0,-0.74942 0.39574,-1.60717 0.87943,-1.9061 0.48368,-0.29894 0.87942,-1.11378 0.87942,-1.81076 0,-0.98485 -1.39698,-1.26724 -6.26926,-1.26724 -5.92964,0 -6.45382,0.16674 -9.67623,3.078 -3.638236,3.28692 -6.06024,3.85398 -7.752393,1.81507 -0.763071,-0.91944 -0.792357,-1.74086 -0.107682,-3.02019 1.301503,-2.43187 1.201137,-2.7523 -0.862073,-2.7523 -2.601079,0 -6.67233,2.29997 -12.689504,7.16869 -2.898298,2.34513 -5.962354,4.26386 -6.809014,4.26386 -1.429048,0 -1.406531,-0.35507 0.314146,-4.954 z"
       id="path102112" />
  </g>
</svg>
